<?xml version="1.0" encoding="utf-8"?>
<!-- Generator: Adobe Illustrator 22.0.0, SVG Export Plug-In . SVG Version: 6.00 Build 0)  -->
<svg version="1.1" id="图层_1" xmlns="http://www.w3.org/2000/svg" xmlns:xlink="http://www.w3.org/1999/xlink" x="0px" y="0px"
	 viewBox="0 0 25 25" style="enable-background:new 0 0 25 25;" xml:space="preserve">
<style type="text/css">
	.st0{fill:#ea4d09;}
</style>
<path class="st0" d="M14.545,5.375l0.81,0.199c-0.362,2.898,3.84,4.063,2.426,7.656c-0.133,0.336-0.45,0.845-0.783,1.155
	c-0.366,0.341-0.537,0.475-0.895,0.541c-0.192,0.035,0.191-0.428,0.317-0.566c0.497-0.547,0.716-1.445,0.652-2.175
	c-0.101-1.15-1.462-2.726-2.431-2.933l-1.598,6.495c-0.394,1.601-0.749,2.395-1.444,2.973c-1.261,1.05-3.952,1.475-4.599-0.339
	C6.845,17.945,6.952,17.35,7.16,16.9c0.584-1.263,2.93-2.507,4.874-1.317L14.545,5.375L14.545,5.375z"/>
<g>
	<path class="st0" d="M12.5,1C18.841,1,24,6.159,24,12.5S18.841,24,12.5,24S1,18.841,1,12.5S6.159,1,12.5,1 M12.5,0
		C5.596,0,0,5.596,0,12.5S5.596,25,12.5,25S25,19.404,25,12.5S19.404,0,12.5,0L12.5,0z"/>
</g>
</svg>
